# Blender v3.3.0 OBJ File: 'Box.blend'
# www.blender.org
mtllib M.C.C.mtl
o M.C.C
v -0.240483 -0.992550 0.208987
v -0.240483 0.992550 0.208987
v -0.240483 -0.992550 -0.208987
v -0.240483 0.992550 -0.208987
v 0.240483 -0.992550 0.208987
v 0.240483 0.992550 0.208987
v 0.240483 -0.992550 -0.208987
v 0.240483 0.992550 -0.208987
v -0.223479 -0.922369 0.191212
v -0.223479 0.922369 0.191212
v -0.226599 -0.935246 -0.196921
v -0.226599 0.935245 -0.196921
v 0.223479 -0.922369 0.191212
v 0.223479 0.922369 0.191212
v 0.226599 -0.935246 -0.196921
v 0.226599 0.935245 -0.196921
v -0.231981 -0.944287 0.191212
v -0.231981 0.944287 0.191212
v 0.231981 -0.944287 0.191212
v 0.231981 0.944287 0.191212
v -0.226599 -0.935246 -0.196921
v -0.223479 -0.922369 0.191212
v 0.226599 -0.935246 -0.196921
v 0.223479 -0.922369 0.191212
v -0.231981 -0.944287 0.191212
v 0.231981 -0.944287 0.191212
v -0.234176 -0.956748 0.208987
v -0.234176 0.956748 0.208987
v 0.234176 -0.956748 0.208987
v 0.234176 0.956748 0.208987
v -0.231703 0.648192 0.185364
v -0.231703 0.673456 0.185364
v -0.231703 0.648192 -0.202817
v -0.231703 0.673456 -0.202817
v 0.231703 0.648192 0.185364
v 0.231703 0.673456 0.185364
v 0.231703 0.648192 -0.202817
v 0.231703 0.673456 -0.202817
v 0.221845 0.910564 0.193506
v 0.221840 -0.910247 0.193253
v 0.224280 -0.910666 0.200697
v 0.224191 0.911925 0.200855
v -0.165909 0.770641 0.214909
v -0.165892 0.772879 0.218071
v -0.166009 0.797191 0.196120
v -0.165992 0.799429 0.199281
v 0.162815 0.770641 0.213152
v 0.162832 0.772879 0.216314
v 0.162714 0.797191 0.194362
v 0.162731 0.799429 0.197524
v -0.165909 0.641134 0.214909
v -0.165892 0.643372 0.218071
v -0.166009 0.667684 0.196119
v -0.165992 0.669922 0.199281
v 0.162815 0.641134 0.213152
v 0.162832 0.643372 0.216314
v 0.162714 0.667684 0.194362
v 0.162731 0.669922 0.197524
v -0.165909 0.673252 0.214909
v -0.165892 0.675490 0.218071
v -0.166009 0.699802 0.196119
v -0.165992 0.702039 0.199281
v 0.162815 0.673252 0.213152
v 0.162832 0.675490 0.216314
v 0.162714 0.699802 0.194362
v 0.162731 0.702039 0.197524
v -0.165909 0.706060 0.214909
v -0.165892 0.708298 0.218071
v -0.166009 0.732610 0.196119
v -0.165992 0.734848 0.199281
v 0.162815 0.706060 0.213152
v 0.162832 0.708298 0.216314
v 0.162714 0.732610 0.194362
v 0.162731 0.734848 0.197524
v -0.165909 0.739214 0.214909
v -0.165892 0.741452 0.218071
v -0.166009 0.765764 0.196119
v -0.165992 0.768002 0.199281
v 0.162815 0.739214 0.213152
v 0.162832 0.741452 0.216314
v 0.162714 0.765764 0.194362
v 0.162731 0.768002 0.197524
v -0.225340 0.907898 0.199058
v 0.221845 0.910564 0.193506
v -0.225162 -0.910165 0.195644
v 0.221840 -0.910247 0.193253
v -0.229616 -0.910666 0.203123
v -0.229787 0.911371 0.203157
v 0.224280 -0.910666 0.200697
v 0.224191 0.911925 0.200855
v -0.234015 0.940850 0.197018
v 0.230316 0.944287 0.191359
v -0.233639 -0.944287 0.193839
v 0.230316 -0.944287 0.191359
v -0.235740 -0.956748 0.211625
v -0.235740 0.956748 0.211625
v 0.232606 -0.956748 0.209121
v 0.232606 0.956748 0.209121
v -0.167029 0.643367 0.202834
v 0.161695 0.643367 0.201165
v 0.162795 0.643367 0.209495
v -0.165928 0.643367 0.211252
v -0.165928 0.800002 0.211252
v 0.162795 0.800002 0.209494
v -0.209870 -0.020251 0.195977
v -0.209853 -0.014611 0.199093
v -0.209748 -0.020251 0.218754
v -0.209765 -0.014611 0.215638
v -0.201663 -0.022917 0.195933
v -0.198332 -0.018355 0.199032
v -0.201541 -0.022917 0.218710
v -0.198243 -0.018355 0.215577
v -0.196591 -0.029899 0.195906
v -0.191211 -0.028156 0.198994
v -0.196469 -0.029899 0.218683
v -0.191122 -0.028156 0.215539
v -0.196591 -0.038528 0.195906
v -0.191211 -0.040271 0.198994
v -0.196469 -0.038528 0.218683
v -0.191122 -0.040271 0.215539
v -0.201663 -0.045509 0.195933
v -0.198332 -0.050072 0.199032
v -0.201541 -0.045509 0.218710
v -0.198243 -0.050072 0.215577
v -0.209870 -0.048176 0.195977
v -0.209853 -0.053815 0.199093
v -0.209748 -0.048176 0.218754
v -0.209765 -0.053815 0.215638
v -0.218077 -0.045509 0.196021
v -0.221375 -0.050072 0.199155
v -0.217955 -0.045509 0.218798
v -0.221286 -0.050072 0.215700
v -0.223149 -0.038528 0.196048
v -0.228496 -0.040271 0.199193
v -0.223027 -0.038528 0.218825
v -0.228407 -0.040271 0.215738
v -0.223149 -0.029899 0.196048
v -0.228496 -0.028156 0.199193
v -0.223027 -0.029899 0.218825
v -0.228407 -0.028156 0.215738
v -0.218077 -0.022917 0.196021
v -0.221375 -0.018355 0.199155
v -0.217955 -0.022917 0.218798
v -0.221286 -0.018355 0.215700
vt 0.876400 0.008959
vt 0.876400 0.587331
vt 0.754621 0.587331
vt 0.754621 0.008959
vt 0.618811 0.010348
vt 0.618811 0.573948
vt 0.482258 0.573948
vt 0.482258 0.010348
vt 0.749022 0.009734
vt 0.749022 0.588106
vt 0.627243 0.588106
vt 0.627243 0.009734
vt 0.869337 0.972833
vt 0.732924 0.973491
vt 0.732352 0.854944
vt 0.868765 0.854286
vt 0.871014 0.972825
vt 0.870356 0.836412
vt 0.988903 0.835840
vt 0.989561 0.972253
vt 0.373882 0.013032
vt 0.471679 0.009788
vt 0.471679 0.481076
vt 0.373882 0.477832
vt 0.257918 0.008701
vt 0.368017 0.009371
vt 0.365250 0.463783
vt 0.255151 0.463112
vt 0.992622 0.552946
vt 0.879739 0.549201
vt 0.879739 0.012704
vt 0.992622 0.008959
vt 0.221150 0.024981
vt 0.215083 0.040379
vt 0.214814 0.040273
vt 0.220880 0.024877
vt 0.992817 0.646292
vt 0.992468 0.754946
vt 0.867420 0.755549
vt 0.866023 0.646903
vt 0.026476 0.016026
vt 0.025183 0.674511
vt 0.014210 0.667196
vt 0.015059 0.045287
vt 0.219323 0.371928
vt 0.213555 0.368054
vt 0.204752 0.327883
vt 0.205249 0.109492
vt 0.209061 0.109500
vt 0.208563 0.327892
vt 0.227832 0.009734
vt 0.221844 0.025331
vt 0.227082 0.009530
vt 0.086169 0.012934
vt 0.086169 0.645668
vt 0.075258 0.641639
vt 0.075198 0.020568
vt 0.099796 0.012934
vt 0.099795 0.645668
vt 0.088884 0.641639
vt 0.088824 0.020568
vt 0.730415 0.773834
vt 0.730764 0.665180
vt 0.855812 0.664577
vt 0.857208 0.773222
vt 0.180604 0.223837
vt 0.180604 0.432085
vt 0.170767 0.428269
vt 0.170767 0.227653
vt 0.214152 0.030828
vt 0.221635 0.016064
vt 0.221893 0.016194
vt 0.214410 0.030957
vt 0.226812 0.009427
vt 0.239964 0.096848
vt 0.237799 0.351620
vt 0.233353 0.351582
vt 0.235517 0.096810
vt 0.229368 0.137433
vt 0.228700 0.355824
vt 0.224889 0.355812
vt 0.225557 0.137421
vt 0.158618 0.012934
vt 0.158617 0.412014
vt 0.152319 0.405459
vt 0.151778 0.051758
vt 0.168112 0.012934
vt 0.168112 0.412014
vt 0.161813 0.405459
vt 0.161272 0.051758
vt 0.118520 0.444341
vt 0.118520 0.660221
vt 0.102451 0.657390
vt 0.102450 0.447172
vt 0.118520 0.225806
vt 0.118520 0.441686
vt 0.102451 0.438855
vt 0.102450 0.228637
vt 0.170767 0.012934
vt 0.180604 0.016750
vt 0.180604 0.217366
vt 0.170767 0.221182
vt 0.424402 0.481831
vt 0.434372 0.482905
vt 0.432993 0.696138
vt 0.423010 0.697083
vt 0.359516 0.473122
vt 0.359379 0.483707
vt 0.165231 0.481193
vt 0.165368 0.470608
vt 0.598601 0.668786
vt 0.728250 0.668160
vt 0.728774 0.776764
vt 0.599125 0.777389
vt 0.731246 0.973499
vt 0.599814 0.974133
vt 0.599283 0.864036
vt 0.730715 0.863402
vt 0.138508 0.505651
vt 0.130121 0.501678
vt 0.129983 0.025179
vt 0.138508 0.012934
vt 0.580464 0.640612
vt 0.580464 0.645366
vt 0.540544 0.645366
vt 0.540544 0.640612
vt 0.197232 0.162207
vt 0.199888 0.162193
vt 0.201559 0.314350
vt 0.198904 0.314364
vt 0.542662 0.579816
vt 0.547779 0.579815
vt 0.547779 0.622792
vt 0.542662 0.622792
vt 0.275726 0.492647
vt 0.278780 0.492678
vt 0.277988 0.667658
vt 0.274934 0.667627
vt 0.359775 0.494051
vt 0.358932 0.673456
vt 0.341180 0.673373
vt 0.342024 0.493968
vt 0.296093 0.492756
vt 0.295302 0.667737
vt 0.560417 0.692774
vt 0.555663 0.692774
vt 0.555663 0.652855
vt 0.560417 0.652855
vt 0.223322 0.492410
vt 0.226317 0.492440
vt 0.225541 0.664077
vt 0.222546 0.664047
vt 0.543650 0.652855
vt 0.548404 0.652855
vt 0.548404 0.692774
vt 0.543650 0.692774
vt 0.245519 0.664184
vt 0.242524 0.664154
vt 0.243300 0.492517
vt 0.246296 0.492548
vt 0.317073 0.492834
vt 0.316262 0.672239
vt 0.298510 0.672158
vt 0.299321 0.492754
vt 0.572429 0.692774
vt 0.567676 0.692774
vt 0.567676 0.652855
vt 0.572429 0.652855
vt 0.197120 0.492291
vt 0.200115 0.492322
vt 0.199339 0.663959
vt 0.196343 0.663928
vt 0.579976 0.580003
vt 0.585093 0.580003
vt 0.585093 0.622980
vt 0.579976 0.622980
vt 0.219317 0.664066
vt 0.216322 0.664035
vt 0.217098 0.492399
vt 0.220094 0.492429
vt 0.150336 0.667672
vt 0.151361 0.488269
vt 0.169112 0.488371
vt 0.168087 0.667774
vt 0.572160 0.622980
vt 0.567043 0.622980
vt 0.567043 0.580003
vt 0.572160 0.580003
vt 0.271721 0.664303
vt 0.268725 0.664272
vt 0.269502 0.492636
vt 0.272498 0.492666
vt 0.598027 0.622980
vt 0.592909 0.622980
vt 0.592909 0.580003
vt 0.598027 0.580003
vt 0.249524 0.492528
vt 0.252519 0.492559
vt 0.251743 0.664195
vt 0.248747 0.664165
vt 0.380754 0.494150
vt 0.379911 0.673555
vt 0.362160 0.673471
vt 0.363003 0.494067
vt 0.610960 0.622980
vt 0.605842 0.622980
vt 0.605842 0.580003
vt 0.610960 0.580003
vt 0.193115 0.663947
vt 0.190119 0.663917
vt 0.190896 0.492280
vt 0.193892 0.492311
vt 0.555595 0.579815
vt 0.560712 0.579815
vt 0.560712 0.622793
vt 0.555595 0.622793
vt 0.170918 0.492173
vt 0.173913 0.492203
vt 0.173137 0.663840
vt 0.170141 0.663809
vt 0.338053 0.492929
vt 0.337241 0.672333
vt 0.319489 0.672253
vt 0.320301 0.492849
vt 0.149124 0.012934
vt 0.149124 0.473404
vt 0.141390 0.469589
vt 0.141163 0.030457
vt 0.455992 0.692314
vt 0.447135 0.693843
vt 0.448327 0.485230
vt 0.457134 0.486869
vt 0.436888 0.485127
vt 0.445600 0.486727
vt 0.444280 0.692271
vt 0.435696 0.693778
vt 0.047129 0.817762
vt 0.007736 0.836905
vt 0.009202 0.695154
vt 0.048316 0.715123
vt 0.096036 0.818328
vt 0.585903 0.843538
vt 0.051404 0.104962
vt 0.051404 0.655690
vt 0.041907 0.652182
vt 0.041854 0.111606
vt 0.072543 0.645668
vt 0.063185 0.641110
vt 0.063133 0.111375
vt 0.072543 0.104962
vt 0.410322 0.695992
vt 0.411701 0.482758
vt 0.421684 0.481813
vt 0.420292 0.697065
vt 0.127329 0.012934
vt 0.127329 0.223152
vt 0.117585 0.222166
vt 0.117640 0.013733
vt 0.508739 0.871417
vt 0.009216 0.846955
vt 0.606712 0.850139
vt 0.557651 0.871678
vt 0.749415 0.663435
vt 0.729672 0.619676
vt 0.860705 0.619044
vt 0.841385 0.662992
vt 0.391566 0.691999
vt 0.392932 0.486557
vt 0.408625 0.482758
vt 0.407246 0.695992
vt 0.029928 0.642365
vt 0.029426 0.147230
vt 0.039142 0.111606
vt 0.039194 0.652182
vt 0.054553 0.632348
vt 0.054059 0.147137
vt 0.102450 0.218236
vt 0.102789 0.017502
vt 0.123609 0.297826
vt 0.121175 0.297823
vt 0.121253 0.225806
vt 0.123686 0.225809
vt 0.531419 0.634107
vt 0.531419 0.629056
vt 0.683558 0.629052
vt 0.683558 0.634107
vt 0.123686 0.437280
vt 0.121252 0.437278
vt 0.193626 0.137340
vt 0.195572 0.314411
vt 0.192481 0.314450
vt 0.190536 0.137379
vt 0.587542 0.701812
vt 0.097223 0.715688
vt 0.508192 0.974063
vt 0.008437 0.993199
vt 0.557103 0.974324
vt 0.605932 0.996384
vt 0.462217 0.658036
vt 0.487448 0.658036
vt 0.487448 0.676512
vt 0.462217 0.676512
vt 0.493821 0.621792
vt 0.519053 0.621792
vt 0.519053 0.640268
vt 0.493821 0.640268
vt 0.519053 0.658743
vt 0.493821 0.658743
vt 0.519053 0.677219
vt 0.493821 0.677219
vt 0.462217 0.584134
vt 0.487449 0.584134
vt 0.487449 0.602610
vt 0.462217 0.602610
vt 0.487449 0.621085
vt 0.462217 0.621085
vt 0.487449 0.639561
vt 0.462217 0.639561
vt 0.493821 0.603316
vt 0.519053 0.603317
vt 0.944934 0.573719
vt 0.901281 0.588057
vt 0.911436 0.573661
vt 0.928204 0.568203
vt 0.493821 0.584841
vt 0.519053 0.584841
vt 0.693933 0.789215
vt 0.707868 0.808452
vt 0.696072 0.812412
vt 0.686669 0.799292
vt 0.903577 0.631204
vt 0.888202 0.610138
vt 0.901166 0.605783
vt 0.911450 0.620163
vt 0.707868 0.832297
vt 0.695959 0.828518
vt 0.928122 0.639178
vt 0.928152 0.625733
vt 0.693631 0.851653
vt 0.686359 0.841412
vt 0.952763 0.631329
vt 0.944892 0.620223
vt 0.670808 0.858568
vt 0.670984 0.846208
vt 0.968286 0.610135
vt 0.955112 0.605860
vt 0.648411 0.850955
vt 0.655724 0.840917
vt 0.968286 0.583726
vt 0.955264 0.588104
vt 0.634546 0.831618
vt 0.646406 0.827716
vt 0.952812 0.562575
vt 0.634649 0.807672
vt 0.646530 0.811636
vt 0.927993 0.554645
vt 0.648958 0.788670
vt 0.656069 0.798719
vt 0.903442 0.562784
vt 0.671457 0.781692
vt 0.671430 0.794053
vt 0.888174 0.583863
vn -1.0000 0.0000 0.0000
vn 0.0000 0.0000 -1.0000
vn 1.0000 0.0000 0.0000
vn 0.0000 -1.0000 0.0000
vn 0.0000 1.0000 0.0000
vn 1.0000 0.0000 -0.0080
vn 0.0000 -0.0000 1.0000
vn -1.0000 0.0000 -0.0080
vn 0.0000 -0.9995 -0.0332
vn 0.0000 0.8188 0.5740
vn -0.9925 0.0000 0.1226
vn 0.9925 -0.0000 0.1226
vn 0.0000 0.9995 -0.0332
vn 0.0000 -0.8188 0.5740
vn -0.9514 -0.0001 0.3078
vn -1.0000 -0.0000 0.0053
vn -0.0031 0.8163 -0.5777
vn 1.0000 -0.0000 -0.0053
vn 0.0031 -0.8163 0.5777
vn -0.0044 -0.5777 -0.8162
vn 0.0044 0.5777 0.8162
vn 0.0031 -0.8162 0.5777
vn -0.0031 0.8162 -0.5777
vn 0.7927 -0.0005 0.6096
vn 0.0004 0.9981 0.0615
vn 0.0067 -0.9208 0.3901
vn -0.0094 0.0132 -0.9999
vn -0.0077 0.0209 -0.9998
vn -0.0027 0.0213 -0.9998
vn -0.0008 0.0131 -0.9999
vn -0.0102 -0.0011 -0.9999
vn -0.0054 0.0000 -1.0000
vn 0.9918 -0.0000 -0.1279
vn -0.9931 -0.0000 -0.1173
vn -0.0031 -0.8188 -0.5740
vn -0.0085 0.7522 -0.6589
vn 0.0053 0.0000 1.0000
vn 0.1332 0.0221 -0.9908
vn -0.1455 0.0211 -0.9891
vn -0.0414 0.0458 -0.9981
vn 0.0301 0.0461 -0.9985
vn -0.1477 -0.0244 -0.9887
vn -0.0476 -0.0528 -0.9975
vn 0.1302 -0.0234 -0.9912
vn 0.0267 -0.0522 -0.9983
vn 0.9984 -0.0040 -0.0569
vn -0.9984 0.0040 0.0572
vn 0.0003 -0.9989 0.0479
vn -0.0050 0.0000 -1.0000
vn -0.0001 -0.0011 -1.0000
vn -0.5878 0.8090 0.0031
vn 0.9510 0.3090 -0.0051
vn 0.9510 -0.3090 -0.0051
vn 0.5878 -0.8090 -0.0031
vn -0.5878 -0.8090 0.0031
vn -0.9510 -0.3090 0.0051
vn -0.9510 0.3090 0.0051
vn 0.5878 0.8090 -0.0031
vn -0.1685 -0.2389 0.9563
vn -0.1685 0.2389 0.9563
vn -0.2757 0.0912 0.9569
vn -0.2757 -0.0912 0.9569
vn -0.0047 0.4836 -0.8753
vn 0.2796 0.3913 -0.8768
vn 0.1685 0.2389 -0.9563
vn -0.0051 0.2953 -0.9554
vn 0.2889 0.3913 0.8737
vn 0.0047 0.4836 0.8753
vn 0.0051 0.2953 0.9554
vn 0.1787 0.2389 0.9545
vn 0.4553 0.1495 -0.8777
vn 0.2757 0.0912 -0.9569
vn 0.4646 0.1495 0.8728
vn 0.2859 0.0912 0.9539
vn 0.4553 -0.1495 -0.8777
vn 0.2757 -0.0912 -0.9569
vn 0.4646 -0.1494 0.8728
vn 0.2859 -0.0912 0.9539
vn 0.2796 -0.3913 -0.8768
vn 0.1685 -0.2389 -0.9563
vn 0.2889 -0.3913 0.8737
vn 0.1787 -0.2389 0.9545
vn -0.0047 -0.4836 -0.8753
vn -0.0051 -0.2953 -0.9554
vn 0.0047 -0.4836 0.8753
vn 0.0051 -0.2953 0.9554
vn -0.2890 -0.3913 -0.8737
vn -0.1787 -0.2389 -0.9545
vn -0.2796 -0.3913 0.8768
vn -0.4646 -0.1495 -0.8728
vn -0.2859 -0.0912 -0.9539
vn -0.4553 -0.1495 0.8777
vn -0.4646 0.1495 -0.8728
vn -0.2859 0.0912 -0.9539
vn -0.4553 0.1495 0.8777
vn -0.2890 0.3913 -0.8737
vn -0.1787 0.2389 -0.9545
vn -0.2796 0.3913 0.8768
usemtl M.C.C
s 1
f 1/1/1 2/2/1 4/3/1 3/4/1
f 3/5/2 4/6/2 8/7/2 7/8/2
f 7/9/3 8/10/3 6/11/3 5/12/3
f 3/13/4 7/14/4 5/15/4 1/16/4
f 8/17/5 4/18/5 2/19/5 6/20/5
f 9/21/6 11/22/6 12/23/6 10/24/6
f 11/25/7 15/26/7 16/27/7 12/28/7
f 15/29/8 13/30/8 14/31/8 16/32/8
f 19/33/7 13/34/7 24/35/7 26/36/7
f 16/37/9 14/38/9 10/39/9 12/40/9
f 18/41/7 17/42/7 9/43/7 10/44/7
f 19/33/7 20/45/7 14/46/7 13/34/7
f 13/47/7 15/48/7 23/49/7 24/50/7
f 27/51/10 29/52/10 19/33/10 17/53/10
f 29/54/11 30/55/11 20/56/11 19/57/11
f 28/58/12 27/59/12 17/60/12 18/61/12
f 21/62/13 22/63/13 24/64/13 23/65/13
f 25/66/7 26/67/7 24/68/7 22/69/7
f 9/70/7 17/71/7 25/72/7 22/73/7
f 17/53/7 19/33/7 26/36/7 25/74/7
f 15/75/7 11/76/7 21/77/7 23/78/7
f 11/79/7 9/80/7 22/81/7 21/82/7
f 2/83/7 1/84/7 27/85/7 28/86/7
f 5/87/7 6/88/7 30/89/7 29/90/7
f 1/91/7 5/92/7 29/93/7 27/94/7
f 6/95/7 2/96/7 28/97/7 30/98/7
f 18/99/7 10/100/7 14/101/7 20/102/7
f 28/103/14 18/104/14 20/105/14 30/106/14
f 35/107/7 36/108/7 32/109/7 31/110/7
f 33/111/4 37/112/4 35/113/4 31/114/4
f 38/115/5 34/116/5 32/117/5 36/118/5
f 42/119/15 39/120/15 40/121/15 41/122/15
f 43/123/16 44/124/16 46/125/16 45/126/16
f 45/127/17 46/128/17 50/129/17 49/130/17
f 49/131/18 50/132/18 48/133/18 47/134/18
f 47/135/19 48/136/19 44/137/19 43/138/19
f 45/139/20 49/140/20 47/141/20 43/142/20
f 50/143/21 46/144/21 44/137/21 48/136/21
f 51/145/16 52/146/16 54/147/16 53/148/16
f 53/149/17 54/150/17 58/151/17 57/152/17
f 57/153/18 58/154/18 56/155/18 55/156/18
f 55/157/22 56/158/22 52/159/22 51/160/22
f 53/161/20 57/162/20 55/163/20 51/164/20
f 58/151/21 54/150/21 52/159/21 56/158/21
f 59/165/16 60/166/16 62/167/16 61/168/16
f 61/169/23 62/170/23 66/171/23 65/172/23
f 65/173/18 66/174/18 64/175/18 63/176/18
f 63/177/22 64/178/22 60/179/22 59/180/22
f 61/181/20 65/182/20 63/183/20 59/184/20
f 66/171/21 62/170/21 60/179/21 64/178/21
f 67/185/16 68/186/16 70/187/16 69/188/16
f 69/189/17 70/190/17 74/191/17 73/192/17
f 73/193/18 74/194/18 72/195/18 71/196/18
f 71/197/22 72/198/22 68/199/22 67/200/22
f 69/201/20 73/202/20 71/203/20 67/204/20
f 74/191/21 70/190/21 68/199/21 72/198/21
f 75/205/16 76/206/16 78/207/16 77/208/16
f 77/209/17 78/210/17 82/211/17 81/212/17
f 81/213/18 82/214/18 80/215/18 79/216/18
f 79/217/19 80/218/19 76/219/19 75/220/19
f 77/221/20 81/222/20 79/223/20 75/224/20
f 82/211/21 78/210/21 76/219/21 80/218/21
f 88/225/24 87/226/24 85/227/24 83/228/24
f 85/229/25 87/230/25 89/231/25 86/232/25
f 88/233/26 83/234/26 84/235/26 90/236/26
f 46/237/27 88/238/28 90/239/29 50/240/30
f 99/241/31 87/242/32 88/238/28 46/237/27
f 98/243/33 97/244/33 94/245/33 92/246/33
f 96/247/34 91/248/34 93/249/34 95/250/34
f 93/251/35 94/252/35 97/253/35 95/254/35
f 96/255/36 98/256/36 92/257/36 91/258/36
f 101/259/37 97/260/37 98/261/37 104/262/37
f 104/263/37 98/264/37 96/265/37 103/266/37
f 85/267/38 86/268/39 94/269/40 93/270/41
f 86/271/39 84/272/42 92/273/43 94/274/40
f 83/275/44 85/276/38 93/249/41 91/248/45
f 84/277/42 83/278/44 91/258/45 92/257/43
f 102/279/46 99/280/46 46/281/46 103/282/46
f 104/283/47 50/284/47 100/285/47 101/286/47
f 101/287/5 100/288/5 99/280/5 102/279/5
f 46/289/48 50/290/48 104/291/48 103/292/48
f 50/240/30 90/239/29 89/293/49 100/294/50
f 100/294/50 89/293/49 87/242/32 99/241/31
f 102/295/37 95/296/37 97/260/37 101/259/37
f 103/297/37 96/298/37 95/296/37 102/295/37
f 142/299/51 144/300/51 108/301/5 106/302/5
f 114/303/52 116/304/52 120/305/53 118/306/53
f 118/306/53 120/305/53 124/307/54 122/308/54
f 122/308/54 124/307/54 128/309/4 126/310/4
f 126/311/4 128/312/4 132/313/55 130/314/55
f 130/314/55 132/313/55 136/315/56 134/316/56
f 134/316/56 136/315/56 140/317/57 138/318/57
f 138/318/57 140/317/57 144/300/51 142/299/51
f 110/319/58 112/320/58 116/304/52 114/303/52
f 131/321/59 143/322/60 139/323/61 135/324/62
f 106/325/5 108/326/5 112/320/58 110/319/58
f 106/327/63 110/328/64 109/329/65 105/330/66
f 112/331/67 108/332/68 107/333/69 111/334/70
f 110/328/64 114/335/71 113/336/72 109/329/65
f 116/337/73 112/331/67 111/334/70 115/338/74
f 114/335/71 118/339/75 117/340/76 113/336/72
f 120/341/77 116/337/73 115/338/74 119/342/78
f 118/339/75 122/343/79 121/344/80 117/340/76
f 124/345/81 120/341/77 119/342/78 123/346/82
f 122/343/79 126/347/83 125/348/84 121/344/80
f 128/349/85 124/345/81 123/346/82 127/350/86
f 126/347/83 130/351/87 129/352/88 125/348/84
f 132/353/89 128/349/85 127/350/86 131/321/59
f 130/351/87 134/354/90 133/355/91 129/352/88
f 136/356/92 132/353/89 131/321/59 135/324/62
f 134/354/90 138/357/93 137/358/94 133/355/91
f 140/359/95 136/356/92 135/324/62 139/323/61
f 138/357/93 142/360/96 141/361/97 137/358/94
f 144/362/98 140/359/95 139/323/61 143/322/60
f 142/360/96 106/327/63 105/330/66 141/361/97
f 108/332/68 144/362/98 143/322/60 107/333/69
f 109/329/65 113/336/72 117/340/76 121/344/80
f 107/333/69 143/322/60 131/321/59 127/350/86
f 111/334/70 107/333/69 127/350/86 123/346/82
f 115/338/74 111/334/70 123/346/82 119/342/78
f 105/330/66 109/329/65 121/344/80 125/348/84
f 141/361/97 105/330/66 125/348/84 129/352/88
f 137/358/94 141/361/97 129/352/88 133/355/91
